<svg width="31" height="28" viewBox="0 0 31 28" fill="none" xmlns="http://www.w3.org/2000/svg">
<path d="M15.15 27.2C14.4 27.2 13.5 26.9 12.9 26.3C3.15 17.75 3 17.6 3 17.45L2.85 17.3C1.05 15.5 0 12.95 0 10.4V10.1C0.15 4.7 4.5 0.5 9.9 0.5C11.55 0.5 13.8 1.4 15.15 3.2C16.5 1.4 18.9 0.5 20.55 0.5C25.95 0.5 30.15 4.7 30.45 10.1V10.4C30.45 13.1 29.4 15.5 27.6 17.45L27.45 17.6C27.3 17.75 26.1 18.8 17.55 26.45C16.8 26.9 16.05 27.2 15.15 27.2ZM5.25 17C5.85 17.6 8.85 19.7 14.4 24.5C14.85 24.95 15.45 24.95 15.9 24.5C21.6 19.4 24.9 16.55 25.65 15.95L25.8 15.8C27.3 14.3 28.05 12.35 28.05 10.4V10.1C27.9 5.9 24.6 2.75 20.4 2.75C19.35 2.75 17.25 3.5 16.5 5.15C16.2 5.75 15.6 6.05 15 6.05C14.4 6.05 13.8 5.75 13.5 5.15C12.75 3.65 10.8 2.75 9.6 2.75C5.55 2.75 2.1 6.05 1.95 10.1V10.55C1.95 12.5 2.85 14.45 4.2 15.8L5.25 17Z" fill="#FCB654"/>
</svg>
